<svg xmlns="http://www.w3.org/2000/svg" viewBox="0 0 655.228 136.513"><defs><style>.cls-1{fill:#393e41}</style></defs><g id="Layer_2" data-name="Layer 2"><g id="Layer_1-2" data-name="Layer 1"><path d="M4.061 104.347V47.363h13.2V53.9A17.6 17.6 0 0132.5 45.716a18.627 18.627 0 019.728 2.858l.771.467-6.08 11.531-.989-.81a9.334 9.334 0 00-6.159-2 12.879 12.879 0 00-6.654 1.557 8.9 8.9 0 00-3.753 4.363 24.4 24.4 0 00-1.674 5.893 47.578 47.578 0 00-.425 6.752v28.02zm65.1 1.92c-8.658 0-15.668-2.938-20.839-8.73-5.143-5.759-7.752-13.086-7.752-21.779 0-9.16 2.461-16.723 7.314-22.479 4.9-5.807 11.972-8.751 21.037-8.751 8.832 0 15.672 2.929 20.329 8.707 4.605 5.718 6.94 13.174 6.94 22.162v2.665H53.378a19.071 19.071 0 004.53 11.462A14.094 14.094 0 0069.28 94.7a15.347 15.347 0 009.091-2.517 26.606 26.606 0 006.872-7.932l.5-.815 10.8 6.109-.469.853a30.3 30.3 0 01-26.907 15.872zm14.072-38.335a15.519 15.519 0 00-4.539-8.557 13.879 13.879 0 00-9.773-3.518 14.381 14.381 0 00-9.963 3.707 15.554 15.554 0 00-4.815 8.368zm44.74 38.335c-8.657 0-15.668-2.938-20.839-8.73-5.143-5.759-7.751-13.086-7.751-21.779 0-9.16 2.46-16.723 7.313-22.479 4.895-5.807 11.972-8.751 21.037-8.751 8.832 0 15.672 2.929 20.33 8.707C152.668 58.953 155 66.409 155 75.4v2.665h-42.809a19.059 19.059 0 004.53 11.462 14.091 14.091 0 0011.371 5.173 15.345 15.345 0 009.091-2.517 26.592 26.592 0 006.872-7.932l.5-.815 10.8 6.109-.469.853a30.294 30.294 0 01-26.907 15.872zm14.073-38.335a15.52 15.52 0 00-4.54-8.557 13.878 13.878 0 00-9.773-3.518 14.38 14.38 0 00-9.962 3.707 15.55 15.55 0 00-4.816 8.368zM162.996 0h12.771v104.347h-12.771zM252.244 106.267a30.152 30.152 0 01-22-8.928 29.843 29.843 0 01-8.991-21.939 29.845 29.845 0 018.993-21.942A30.991 30.991 0 01283.234 75.4a29.847 29.847 0 01-8.993 21.942 30.157 30.157 0 01-21.997 8.925zm0-49.449a17.423 17.423 0 00-12.86 5.465 18.649 18.649 0 000 26.173 17.33 17.33 0 0012.857 5.522 17.112 17.112 0 0012.859-5.522 18.647 18.647 0 000-26.173 17.429 17.429 0 00-12.856-5.465zm40.231 79.695v-90.3h12.77v7.635a22.991 22.991 0 0118.821-9.315A24.8 24.8 0 01343.9 53.58a32.238 32.238 0 017.553 21.337c0 8.674-2.5 16.131-7.423 22.167-4.975 6.093-11.856 9.183-20.448 9.183a22.158 22.158 0 01-11.235-3.013 26.192 26.192 0 01-7.105-6.026v39.285zm28.95-80.413a14.775 14.775 0 00-12.141 5.58 20.889 20.889 0 00-4.639 13.6 21.471 21.471 0 004.585 13.787 14.667 14.667 0 0012.195 5.633c5.425 0 9.555-1.806 12.624-5.522a21.183 21.183 0 004.637-13.9A20.591 20.591 0 00334 61.57c-3.12-3.683-7.231-5.47-12.575-5.47zM362.689 46.208h12.771v58.139h-12.771zM369.077 35.715a8.167 8.167 0 01-5.978-2.449 8.031 8.031 0 01-2.45-5.857 8.374 8.374 0 012.44-6.027 8.375 8.375 0 0111.973 0 8.37 8.37 0 012.439 6.027 8.028 8.028 0 01-2.448 5.857 8.171 8.171 0 01-5.976 2.449zm59.029 68.632V71.2c0-5.313-.74-9.242-2.2-11.677-1.364-2.271-4.452-3.423-9.179-3.423a17.755 17.755 0 00-5.571.79 6.919 6.919 0 00-3.485 2.418 25.429 25.429 0 00-2.252 3.522 13.6 13.6 0 00-1.157 4.578c-.237 2.074-.377 3.722-.413 4.9q-.065 1.8-.062 5.25v26.79h-12.77v-58.14h12.77v5.615a17.647 17.647 0 015.826-4.785 22.226 22.226 0 0110.354-2.51c7.672 0 13.156 2.325 16.294 6.909 3.063 4.471 4.616 10.675 4.616 18.44v34.47zM456.43 46.208h12.771v58.139H456.43zM462.817 35.715a8.155 8.155 0 01-5.976-2.45 8.018 8.018 0 01-2.452-5.856 8.375 8.375 0 012.442-6.027 8.373 8.373 0 0111.971 0 8.37 8.37 0 012.439 6.027 8.028 8.028 0 01-2.448 5.857 8.171 8.171 0 01-5.976 2.449zm47.888 70.552a30.163 30.163 0 01-22-8.928 29.838 29.838 0 01-8.99-21.939 29.841 29.841 0 018.991-21.942 31.571 31.571 0 0144 0A29.858 29.858 0 01541.7 75.4a29.853 29.853 0 01-8.991 21.942 30.164 30.164 0 01-22.004 8.925zm0-49.449a17.423 17.423 0 00-12.859 5.465 18.648 18.648 0 000 26.173 17.327 17.327 0 0012.855 5.522 17.115 17.115 0 0012.855-5.522 18.647 18.647 0 000-26.172 17.2 17.2 0 00-12.851-5.466zm77.722 47.529V71.2c0-5.313-.77-9.242-2.291-11.677-1.42-2.271-4.636-3.423-9.557-3.423a19.2 19.2 0 00-5.8.79 7.335 7.335 0 00-3.629 2.418 26.3 26.3 0 00-2.347 3.524 13.329 13.329 0 00-1.2 4.578c-.253 2.147-.393 3.749-.431 4.9-.044 1.2-.06 2.946-.06 5.25v26.79h-13.3V46.208h13.3v5.612a18.218 18.218 0 016.063-4.782 23.922 23.922 0 0110.784-2.51c7.985 0 13.693 2.324 16.966 6.909 3.188 4.467 4.8 10.671 4.8 18.44v34.47zm39.615 1.92A22.907 22.907 0 01615.7 102.7a19.177 19.177 0 01-8.019-9.669l-.323-.861 10.909-4.957.44.8c2.475 4.5 5.53 6.691 9.337 6.691a7.749 7.749 0 005.351-1.973 6.256 6.256 0 002.189-4.964c0-1.987-1.153-3.72-3.524-5.3l-10.48-5.602a31.74 31.74 0 01-8.432-6.153c-1.92-2.134-2.892-5.121-2.892-8.877a16.586 16.586 0 015.157-12.287 17.185 17.185 0 0112.39-5.02c7.416 0 12.884 3.5 16.249 10.394l.417.852-10.5 5.608-.448-.915c-1.437-2.94-3.5-4.37-6.318-4.37a4.933 4.933 0 00-3.422 1.367 4.09 4.09 0 00-1.478 3.171 5.182 5.182 0 00.252 1.664 2.9 2.9 0 00.911 1.253c.607.527 1.129.991 1.575 1.394a9.288 9.288 0 001.952 1.235q1.494.78 2.327 1.2c.552.275 1.47.687 2.766 1.232 1.35.575 2.269.982 2.759 1.228a32.191 32.191 0 019.748 6.558 14.232 14.232 0 013.758 10.286 18.461 18.461 0 01-6.014 13.981 20.287 20.287 0 01-14.295 5.601zM0 0h155.349v12.936H0zM185.294 0h469.934v12.936H185.294zM2.01 122.036h281.225v13.732H2.01z" class="cls-1"/><path d="M315.159 122.036h340.069v13.732H315.159z" class="cls-1"/></g></g></svg>